<?xml version="1.0" standalone="no"?><!DOCTYPE svg PUBLIC "-//W3C//DTD SVG 1.1//EN" "http://www.w3.org/Graphics/SVG/1.1/DTD/svg11.dtd"><svg t="1668411343688" class="icon" viewBox="0 0 1024 1024" version="1.1" xmlns="http://www.w3.org/2000/svg" p-id="2703" xmlns:xlink="http://www.w3.org/1999/xlink" width="200" height="200"><path d="M987.798951 0h-219.383284a36.563881 36.563881 0 0 0-36.563881 36.563881 37.295158 37.295158 0 0 0 36.563881 36.56388h134.555081L724.53901 252.290777a438.766569 438.766569 0 1 0 51.189433 51.920711l175.506628-175.506628V255.947165a37.295158 37.295158 0 0 0 36.56388 36.563881 36.563881 36.563881 0 0 0 36.563881-36.563881v-219.383284a36.563881 36.563881 0 0 0-36.563881-36.563881zM439.34074 950.660899a365.638807 365.638807 0 1 1 365.638808-365.638807 365.638807 365.638807 0 0 1-365.638808 365.638807z" fill="#3681df" p-id="2704"></path></svg>