<?xml version="1.0" standalone="no"?><!DOCTYPE svg PUBLIC "-//W3C//DTD SVG 1.1//EN"
  "http://www.w3.org/Graphics/SVG/1.1/DTD/svg11.dtd">
<svg t="1622354566114" class="icon" viewBox="0 0 1191 1024" version="1.1"
     xmlns="http://www.w3.org/2000/svg"
     p-id="2094" width="37.21875" height="32">
  <defs>
    <style type="text/css"></style>
  </defs>
  <path
    d="M496.997 451.513H301.485a35.72 35.72 0 1 0 0 71.441h195.512a35.72 35.72 0 0 0 0-71.441z m0 236.234H301.485a35.72 35.72 0 1 0 0 71.442h195.512a35.72 35.72 0 1 0 0-71.442z m408.886 0H770.858a35.72 35.72 0 1 0 0 71.442h135.025a35.72 35.72 0 1 0 0-71.442z"
    p-id="2095"></path>
  <path
    d="M1065.674 952.558V512a35.72 35.72 0 0 0-16.67-30.244L651.789 230.281V35.72a35.72 35.72 0 0 0-53.343-30.958L137.168 266.716a35.72 35.72 0 0 0-18.098 30.958v654.884H0V1024h1190.698v-71.442z m-875.162 0V318.393l390.072-221.47V952.32z m461.514 0V315.535l342.445 216.707v420.792z"
    p-id="2096"></path>
</svg>
