<?xml version="1.0" standalone="no"?><!DOCTYPE svg PUBLIC "-//W3C//DTD SVG 1.1//EN" "http://www.w3.org/Graphics/SVG/1.1/DTD/svg11.dtd"><svg t="1678935108400" class="icon" viewBox="0 0 1024 1024" version="1.1" xmlns="http://www.w3.org/2000/svg" p-id="4504" xmlns:xlink="http://www.w3.org/1999/xlink" width="200" height="200"><path d="M150.016 908.288c-11.264 0-22.528-3.584-31.744-11.264-14.848-11.776-22.016-30.72-18.944-49.152l27.136-151.04c-35.84-59.392-54.272-126.464-54.272-194.56 0-223.232 197.632-404.48 440.32-404.48s440.32 181.248 440.32 404.48-197.632 404.48-440.32 404.48c-75.776 0-150.016-17.92-215.552-51.712l-126.464 49.664c-7.168 2.048-13.824 3.584-20.48 3.584z m148.48-118.272c5.12 0 10.24 1.536 14.848 4.096 59.392 33.28 128 50.688 198.656 50.688 208.896 0 378.88-154.112 378.88-343.04s-169.984-343.04-378.88-343.04-378.88 154.112-378.88 343.04c0 60.416 17.408 119.808 51.2 172.032 4.096 6.656 5.632 14.336 4.608 22.016l-25.6 145.408 124.416-48.64c3.072-2.048 6.656-2.56 10.752-2.56z" fill="#8a8a8a" p-id="4505"></path><path d="M312.32 558.08c-3.584 0-7.168-0.512-11.264-1.024-3.584-0.512-7.168-2.048-10.752-3.072-3.584-1.536-6.656-3.072-9.728-5.12-3.072-2.048-6.144-4.608-8.704-7.168-10.24-10.752-16.384-25.088-16.384-39.936 0-3.584 0.512-7.168 1.024-11.264 0.512-3.584 2.048-7.168 3.072-10.752 1.536-3.584 3.072-6.656 5.12-9.728 2.048-3.072 4.608-6.144 7.168-8.704 10.24-10.24 25.088-16.384 39.936-16.384 14.848 0 29.184 6.144 39.936 16.384 2.56 2.56 5.12 5.632 7.168 8.704 2.048 3.072 3.584 6.144 5.12 9.728 1.536 3.584 2.56 7.168 3.072 10.752 1.024 3.584 1.024 7.168 1.024 11.264 0 14.848-6.144 29.184-16.384 39.936-2.56 2.56-5.632 5.12-8.704 7.168-3.072 2.048-6.144 3.584-9.728 5.12-3.584 1.536-7.168 2.56-10.752 3.072-3.072 0.512-6.656 1.024-10.24 1.024zM517.12 558.08c-3.584 0-7.168-0.512-11.264-1.024-3.584-0.512-7.168-2.048-10.752-3.072-3.584-1.536-6.656-3.072-9.728-5.12-3.072-2.048-6.144-4.608-8.704-7.168-2.56-2.56-5.12-5.632-7.168-8.704-2.048-3.072-3.584-6.144-5.12-9.728-1.536-3.584-2.56-7.168-3.072-10.752 0-3.584-0.512-7.168-0.512-10.752s0.512-7.168 1.024-11.264c0.512-3.584 2.048-7.168 3.072-10.752 1.536-3.584 3.072-6.656 5.12-9.728 2.048-3.072 4.608-6.144 7.168-8.704s5.632-5.12 8.704-7.168c3.072-2.048 6.144-3.584 9.728-5.12 3.584-1.536 7.168-2.56 10.752-3.072 7.168-1.536 14.848-1.536 22.016 0 3.584 0.512 7.168 2.048 10.752 3.072 3.584 1.536 6.656 3.072 9.728 5.12 3.072 2.048 6.144 4.608 8.704 7.168 2.56 2.56 5.12 5.632 7.168 8.704 2.048 3.072 3.584 6.144 5.12 9.728 1.536 3.584 2.56 7.168 3.072 10.752 1.024 3.584 1.024 7.168 1.024 11.264s-0.512 7.168-1.024 10.752c-0.512 3.584-1.536 7.168-3.072 10.752-1.536 3.584-3.072 6.656-5.12 9.728-2.048 3.072-4.608 6.144-7.168 8.704-2.56 2.56-5.632 5.12-8.704 7.168-3.072 2.048-6.144 3.584-9.728 5.12-3.584 1.536-7.168 2.56-10.752 3.072-4.096 0.512-7.68 1.024-11.264 1.024zM721.92 558.08c-3.584 0-7.168-0.512-11.264-1.024-3.584-0.512-7.168-2.048-10.752-3.072-3.584-1.536-6.656-3.072-9.728-5.12-3.072-2.048-6.144-4.608-8.704-7.168-10.24-10.752-16.384-25.088-16.384-39.936 0-3.584 0.512-7.168 1.024-11.264 0.512-3.584 2.048-7.168 3.072-10.752 1.536-3.584 3.072-6.656 5.12-9.728 2.048-3.072 4.608-6.144 7.168-8.704s5.632-5.12 8.704-7.168c3.072-2.048 6.144-3.584 9.728-5.12 3.584-1.536 7.168-2.56 10.752-3.072 7.168-1.536 14.848-1.536 22.016 0 3.584 0.512 7.168 2.048 10.752 3.072 3.584 1.536 6.656 3.072 9.728 5.12 3.072 2.048 6.144 4.608 8.704 7.168 2.56 2.56 5.12 5.632 7.168 8.704 2.048 3.072 3.584 6.144 5.12 9.728 1.536 3.584 2.56 7.168 3.072 10.752 1.024 3.584 1.024 7.168 1.024 11.264s-0.512 7.168-1.024 10.752c-0.512 3.584-1.536 7.168-3.072 10.752-1.536 3.584-3.072 6.656-5.12 9.728-2.048 3.072-4.608 6.144-7.168 8.704-2.56 2.56-5.632 5.12-8.704 7.168-3.072 2.048-6.144 3.584-9.728 5.12-3.584 1.536-7.168 2.56-10.752 3.072-3.584 0.512-7.168 1.024-10.752 1.024z" fill="#8a8a8a" p-id="4506"></path></svg>