<?xml version="1.0" standalone="no"?><!DOCTYPE svg PUBLIC "-//W3C//DTD SVG 1.1//EN" "http://www.w3.org/Graphics/SVG/1.1/DTD/svg11.dtd"><svg t="1681111171810" class="icon" viewBox="0 0 1024 1024" version="1.1" xmlns="http://www.w3.org/2000/svg" p-id="5083" xmlns:xlink="http://www.w3.org/1999/xlink" width="200" height="200"><path d="M298.069333 342.250667m-39.637333 0a39.637333 39.637333 0 1 0 79.274667 0 39.637333 39.637333 0 1 0-79.274667 0Z" fill="#8a8a8a" p-id="5084"></path><path d="M605.312 570.197333m-29.738667 0a29.738667 29.738667 0 1 0 59.477334 0 29.738667 29.738667 0 1 0-59.477334 0Z" fill="#8a8a8a" p-id="5085"></path><path d="M783.701333 570.197333m-29.738666 0a29.738667 29.738667 0 1 0 59.477333 0 29.738667 29.738667 0 1 0-59.477333 0Z" fill="#8a8a8a" p-id="5086"></path><path d="M496.298667 342.250667m-39.637334 0a39.637333 39.637333 0 1 0 79.274667 0 39.637333 39.637333 0 1 0-79.274667 0Z" fill="#8a8a8a" p-id="5087"></path><path d="M407.104 74.666667c-217.898667 0-396.437333 149.397333-396.437333 336.576l0.106666 7.829333c2.026667 75.52 33.408 146.624 87.936 203.818667l3.626667 3.754666-0.512 2.453334c-1.066667 4.650667-2.282667 9.301333-4.352 16.234666l-11.797333 38.165334c-2.922667 9.728-4.757333 16.426667-6.250667 23.082666l-0.533333 2.496c-5.376 25.237333-5.077333 40.362667 12.970666 52.992 16.938667 11.861333 30.933333 8.256 50.837334-3.413333l3.584-2.133333c8.106667-4.970667 15.082667-9.856 29.013333-20.202667l20.778667-15.466667c8.149333-5.973333 13.269333-9.472 18.24-12.522666l2.666666-1.6 9.045334 4.053333c55.488 24.213333 117.205333 37.034667 181.077333 37.034667 13.568 0 27.008-0.576 40.256-1.749334a29.738667 29.738667 0 0 0 25.92-38.08 161.237333 161.237333 0 0 1-6.72-46.08c0-104.277333 101.12-190.805333 227.946667-190.805333 23.573333 0 46.634667 2.986667 68.586666 8.832 17.066667 4.522667 34.304-6.741333 37.013334-24.192 2.282667-14.677333 3.413333-29.525333 3.413333-44.501333 0-187.178667-178.538667-336.576-396.416-336.576z m6.912 59.52c183.914667 3.050667 330.048 127.168 330.048 277.056l-0.085333 4.117333-6.890667-1.002667a332.010667 332.010667 0 0 0-42.581333-2.730666c-157.781333 0-287.402667 110.933333-287.402667 250.282666l0.149333 8.042667c0.192 5.333333 0.576 10.666667 1.152 15.936l0.298667 2.432-1.6 0.021333c-61.866667 0-121.173333-13.738667-172.992-39.338666-16.128-7.957333-29.056-4.266667-47.189333 6.4l-5.824 3.562666-4.736 3.050667c-3.2 2.133333-6.613333 4.48-10.602667 7.36l-17.450667 12.864 5.589334-17.984c2.816-9.344 4.437333-15.424 5.930666-22.101333 5.312-23.594667 5.610667-37.162667-8.405333-50.56-52.288-50.090667-81.28-113.493333-81.28-180.352 0-151.765333 149.802667-277.12 336.96-277.12l6.912 0.064z" fill="#8a8a8a" p-id="5088"></path><path d="M704.426667 411.626667c163.072 0 297.322667 110.656 297.322666 250.282666l-0.106666 6.698667c-1.664 53.312-23.125333 103.552-60.330667 144.746667l-5.610667 6.016 1.536 5.653333 10.026667 32.064c1.792 5.973333 2.986667 10.432 4.010667 14.848l0.490666 2.218667c4.693333 21.76 4.437333 34.965333-12.864 46.890666-15.850667 10.922667-27.882667 7.978667-44.906666-1.813333l-6.805334-4.117333c-3.52-2.218667-7.104-4.693333-11.946666-8.170667l-23.509334-17.130667a242.986667 242.986667 0 0 0-5.930666-4.117333l-3.2-2.090667-6.442667 2.794667a343.466667 343.466667 0 0 1-131.733333 25.792c-163.072 0-297.322667-110.656-297.322667-250.282667 0-139.626667 134.250667-250.282667 297.322667-250.282666z m0 59.477333c-132.501333 0-237.866667 86.826667-237.866667 190.805333 0 103.978667 105.365333 190.805333 237.866667 190.805334 43.946667 0 86.08-9.6 122.837333-27.498667 15.957333-7.765333 27.477333-3.754667 44.544 6.549333l3.84 2.389334 2.944 1.92-1.557333-6.272c-4.330667-18.944-4.821333-30.314667 6.186666-42.112l2.368-2.346667c36.565333-34.474667 56.682667-77.845333 56.682667-123.434667 0-103.978667-105.344-190.805333-237.866667-190.805333z" fill="#8a8a8a" p-id="5089"></path></svg>